<?xml version="1.0" encoding="iso-8859-1"?>
<!-- Generator: Adobe Illustrator 19.0.0, SVG Export Plug-In . SVG Version: 6.00 Build 0)  -->
<svg version="1.1" id="Layer_1" xmlns="http://www.w3.org/2000/svg" xmlns:xlink="http://www.w3.org/1999/xlink" x="0px" y="0px"
	 viewBox="0 0 512.001 512.001" style="enable-background:new 0 0 512.001 512.001;" xml:space="preserve">
<g>
	<path style="fill:#82AFFF;" d="M482.412,145.606c-0.003-12.607-6.729-24.255-17.649-30.557L273.602,4.725
		c-10.92-6.302-24.37-6.3-35.287,0.006L47.19,115.118c-10.917,6.305-17.64,17.955-17.638,30.562l0.004,24.301h452.861
		L482.412,145.606z"/>
	<path style="fill:#82AFFF;" d="M29.589,366.395c0.003,12.607,6.729,24.255,17.649,30.557l191.161,110.325
		c10.918,6.301,24.37,6.299,35.287-0.006l191.125-110.39c10.917-6.305,17.64-17.955,17.639-30.563l-0.004-24.301H29.585
		L29.589,366.395z"/>
</g>
<polygon style="fill:#F5F5F5;" points="482.445,342.019 482.417,169.982 29.556,169.982 29.585,342.019 "/>
<path style="fill:#F09146;" d="M305.987,253.501h-35.995c0.671-0.51,1.202-1.011,1.683-1.485c0.879-0.86,1.577-1.542,3.432-2.304
	c1.865-0.781,2.84-0.791,4.076-0.811c1.488-0.01,3.173-0.039,5.926-1.172c2.748-1.142,3.949-2.313,5.009-3.349
	c0.879-0.86,1.577-1.542,3.437-2.314c1.851-0.771,2.822-0.781,4.051-0.791c1.485-0.02,3.168-0.039,5.921-1.181l-1.923-4.609
	c-1.849,0.771-2.822,0.781-4.051,0.791c-1.485,0.02-3.168,0.039-5.916,1.172c-2.748,1.142-3.949,2.313-5.009,3.349
	c-0.879,0.86-1.577,1.542-3.432,2.304c-1.865,0.781-2.84,0.791-4.076,0.81c-1.488,0.01-3.173,0.039-5.926,1.181
	c-2.748,1.132-3.949,2.314-5.009,3.349c-0.865,0.841-1.58,1.516-3.359,2.267l28.29-28.286l-3.534-3.534l-25.464,25.461
	c0.112-0.832,0.142-1.573,0.15-2.244c0.015-1.24,0.025-2.207,0.796-4.071s1.455-2.558,2.314-3.437
	c1.045-1.065,2.221-2.274,3.363-5.027c1.137-2.753,1.157-4.433,1.172-5.916c0.015-1.23,0.025-2.207,0.791-4.061
	c0.771-1.854,1.45-2.548,2.309-3.427c1.04-1.065,2.216-2.266,3.354-5.009l-4.617-1.913c-0.771,1.854-1.45,2.548-2.309,3.427
	c-1.04,1.065-2.216,2.266-3.354,5.009c-1.137,2.753-1.157,4.433-1.172,5.916c-0.015,1.23-0.025,2.207-0.791,4.061
	c-0.771,1.864-1.455,2.558-2.314,3.437c-1.045,1.065-2.221,2.274-3.363,5.029c-1.137,2.753-1.157,4.443-1.176,5.926
	c-0.01,1.203-0.044,2.177-0.766,3.964v-39.999h-4.999v35.994c-0.51-0.667-1.01-1.197-1.48-1.677
	c-0.864-0.879-1.542-1.582-2.314-3.437c-0.771-1.865-0.786-2.84-0.801-4.081c-0.015-1.485-0.034-3.173-1.176-5.926
	c-1.137-2.743-2.313-3.944-3.354-5.009c-0.86-0.879-1.537-1.572-2.309-3.427c-0.766-1.854-0.776-2.832-0.791-4.061
	c-0.015-1.485-0.034-3.163-1.172-5.907l-4.617,1.913c0.766,1.854,0.776,2.822,0.791,4.051c0.015,1.485,0.034,3.163,1.172,5.916
	c1.137,2.743,2.313,3.944,3.353,5.009c0.86,0.879,1.537,1.572,2.309,3.427c0.771,1.865,0.786,2.84,0.801,4.081
	c0.015,1.485,0.034,3.173,1.176,5.926c1.137,2.753,2.314,3.954,3.354,5.019c0.847,0.862,1.517,1.58,2.269,3.354l-28.292-28.289
	l-3.534,3.534l28.249,28.245c-1.55-0.705-2.297-1.35-3.109-2.138c-1.068-1.045-2.274-2.226-5.037-3.368
	c-2.753-1.132-4.438-1.162-5.926-1.181c-1.24-0.01-2.216-0.029-4.095-0.81c-1.879-0.771-2.582-1.455-3.475-2.323
	c-1.068-1.035-2.279-2.216-5.047-3.368c-2.763-1.142-4.453-1.162-5.946-1.181c-1.245-0.02-2.226-0.039-4.105-0.82l-1.913,4.627
	c2.763,1.142,4.453,1.162,5.946,1.181c1.245,0.02,2.226,0.039,4.105,0.82c1.884,0.771,2.587,1.455,3.48,2.323
	c1.07,1.045,2.279,2.216,5.042,3.359c2.763,1.152,4.453,1.172,5.941,1.191c1.24,0.02,2.216,0.03,4.086,0.811
	c1.869,0.771,2.568,1.455,3.452,2.313c0.454,0.446,0.96,0.916,1.576,1.396h-36.093v4.999h39.925c-1.577,0.6-2.564,0.676-3.694,0.694
	c-1.488,0.01-3.173,0.039-5.931,1.172c-2.758,1.142-3.969,2.323-5.037,3.359c-0.889,0.869-1.587,1.552-3.457,2.323
	c-1.879,0.781-2.86,0.801-4.105,0.82c-1.493,0.02-3.183,0.039-5.946,1.181c-2.768,1.152-3.979,2.323-5.047,3.368
	c-0.894,0.869-1.596,1.552-3.475,2.323l1.913,4.628c2.763-1.152,3.974-2.323,5.042-3.368c0.894-0.869,1.596-1.552,3.48-2.323
	c1.879-0.781,2.86-0.801,4.105-0.82c1.493-0.02,3.183-0.039,5.951-1.191c2.753-1.142,3.959-2.314,5.027-3.359
	c0.883-0.86,1.587-1.542,3.462-2.314c1.865-0.781,2.845-0.791,4.081-0.81c0.632-0.004,1.345-0.045,2.116-0.14l-25.537,25.533
	l3.534,3.534l28.235-28.23c-0.695,1.542-1.337,2.287-2.128,3.1c-1.04,1.065-2.216,2.274-3.359,5.027
	c-1.142,2.753-1.167,4.453-1.181,5.936c-0.02,1.24-0.029,2.216-0.806,4.09c-0.776,1.884-1.465,2.587-2.328,3.475
	c-1.045,1.065-2.221,2.284-3.368,5.047s-1.167,4.453-1.186,5.946c-0.02,1.24-0.034,2.226-0.81,4.1l4.617,1.913
	c1.147-2.763,1.166-4.453,1.186-5.946c0.02-1.24,0.034-2.226,0.81-4.1c0.776-1.884,1.465-2.587,2.328-3.475
	c1.045-1.065,2.221-2.284,3.368-5.047c1.142-2.753,1.167-4.453,1.181-5.936c0.02-1.24,0.03-2.216,0.806-4.09
	c0.771-1.874,1.455-2.568,2.318-3.457c0.444-0.455,0.916-0.962,1.396-1.58v36.101h4.999v-39.923
	c0.596,1.575,0.671,2.558,0.689,3.693c0.015,1.485,0.039,3.173,1.181,5.926c1.137,2.763,2.318,3.974,3.359,5.037
	c0.863,0.889,1.547,1.591,2.323,3.465s0.791,2.86,0.81,4.1c0.02,1.493,0.039,3.183,1.186,5.946s2.323,3.984,3.368,5.047
	c0.863,0.888,1.552,1.592,2.328,3.475l4.617-1.913c-1.147-2.763-2.323-3.984-3.368-5.047c-0.863-0.888-1.552-1.592-2.328-3.475
	c-0.776-1.875-0.791-2.86-0.81-4.1c-0.02-1.493-0.039-3.183-1.186-5.946c-1.142-2.763-2.318-3.974-3.359-5.037
	c-0.864-0.888-1.547-1.591-2.323-3.465c-0.776-1.864-0.786-2.842-0.806-4.081c-0.006-0.631-0.047-1.345-0.142-2.116l25.542,25.537
	l3.534-3.534l-25.461-25.457c0.827,0.11,1.567,0.142,2.234,0.151c1.235,0.01,2.207,0.02,4.071,0.791
	c1.864,0.781,2.563,1.455,3.447,2.323c1.065,1.035,2.269,2.216,5.024,3.359c2.748,1.132,4.433,1.152,5.916,1.162
	c1.23,0.02,2.202,0.029,4.056,0.801c1.854,0.761,2.548,1.445,3.427,2.304c1.065,1.035,2.266,2.216,5.014,3.359l1.913-4.627
	c-1.854-0.761-2.548-1.445-3.427-2.304c-1.065-1.035-2.266-2.216-5.014-3.359c-2.748-1.132-4.433-1.152-5.916-1.162
	c-1.23-0.02-2.202-0.029-4.056-0.801c-1.864-0.771-2.563-1.445-3.447-2.314c-1.065-1.035-2.269-2.216-5.024-3.349
	c-2.753-1.152-4.438-1.172-5.926-1.181c-1.212-0.02-2.193-0.042-3.991-0.771h40.032v-4.996L305.987,253.501L305.987,253.501z"/>
<circle style="fill:#FFE15A;" cx="256.001" cy="256" r="24.993"/>
<g>
</g>
<g>
</g>
<g>
</g>
<g>
</g>
<g>
</g>
<g>
</g>
<g>
</g>
<g>
</g>
<g>
</g>
<g>
</g>
<g>
</g>
<g>
</g>
<g>
</g>
<g>
</g>
<g>
</g>
</svg>
