<svg width="144" height="128" viewBox="0 0 144 128" fill="none" xmlns="http://www.w3.org/2000/svg">
<g id="mailSvg" clip-path="url(#clip0)">
<path id="Vector" d="M141.762 48.9498C141.711 48.9498 141.661 48.9342 141.619 48.905L72.2284 0.723481C72.0172 0.577538 71.7663 0.499543 71.5093 0.49998C71.2524 0.500417 71.0017 0.579264 70.791 0.725923L1.90043 48.9045C1.84594 48.9426 1.77851 48.9575 1.71295 48.9461C1.64739 48.9346 1.58909 48.8976 1.55087 48.8433C1.51265 48.789 1.49764 48.7217 1.50915 48.6564C1.52066 48.591 1.55773 48.5329 1.61222 48.4948L70.5029 0.316239C70.7979 0.110947 71.1488 0.000591781 71.5085 2.3734e-06C71.8682 -0.000587034 72.2195 0.108616 72.5151 0.312941L141.906 48.4943C141.949 48.5247 141.982 48.5684 142 48.6188C142.017 48.6692 142.018 48.7238 142.002 48.7746C141.985 48.8254 141.954 48.8698 141.911 48.9013C141.867 48.9328 141.815 48.9498 141.762 48.9498L141.762 48.9498Z" fill="#1B263D"/>
<path id="Vector_2" d="M5.83716 50.6577L71.5777 2.08105L137.817 54.1141L74.9649 91.2627L40.8416 83.5078L5.83716 50.6577Z" fill="#E52B2B" fill-opacity="0.2"/>
<path id="Vector_3" d="M43.7218 114.208H11.2444C11.045 114.208 10.8474 114.169 10.6631 114.093C10.4788 114.017 10.3113 113.906 10.1702 113.765C10.0291 113.625 9.91716 113.458 9.84079 113.274C9.76441 113.091 9.7251 112.894 9.7251 112.695C9.7251 112.496 9.76441 112.299 9.84079 112.116C9.91716 111.932 10.0291 111.765 10.1702 111.625C10.3113 111.484 10.4788 111.373 10.6631 111.297C10.8474 111.221 11.045 111.182 11.2444 111.182H43.7218C43.9212 111.182 44.1187 111.221 44.3031 111.297C44.4874 111.373 44.6549 111.484 44.796 111.625C44.9371 111.765 45.049 111.932 45.1254 112.116C45.2018 112.299 45.2411 112.496 45.2411 112.695C45.2411 112.894 45.2018 113.091 45.1254 113.274C45.049 113.458 44.9371 113.625 44.796 113.765C44.6549 113.906 44.4874 114.017 44.3031 114.093C44.1187 114.169 43.9212 114.208 43.7218 114.208Z" fill="#3551F2"/>
<path id="Vector_4" d="M22.8966 107.704H11.2444C11.045 107.704 10.8474 107.665 10.6631 107.589C10.4788 107.513 10.3113 107.402 10.1702 107.261C10.0291 107.121 9.91716 106.954 9.84079 106.77C9.76441 106.586 9.7251 106.39 9.7251 106.191C9.7251 105.992 9.76441 105.795 9.84079 105.611C9.91716 105.428 10.0291 105.261 10.1702 105.12C10.3113 104.98 10.4788 104.868 10.6631 104.793C10.8474 104.717 11.045 104.678 11.2444 104.678H22.8966C23.096 104.678 23.2935 104.717 23.4778 104.793C23.6621 104.868 23.8296 104.98 23.9707 105.12C24.1118 105.261 24.2238 105.428 24.3001 105.611C24.3765 105.795 24.4158 105.992 24.4158 106.191C24.4158 106.39 24.3765 106.586 24.3001 106.77C24.2238 106.954 24.1118 107.121 23.9707 107.261C23.8296 107.402 23.6621 107.513 23.4778 107.589C23.2935 107.665 23.096 107.704 22.8966 107.704Z" fill="#3551F2"/>
<path id="Vector_5" d="M72.5019 77.7143C72.255 77.7145 72.0105 77.6668 71.782 77.5737L31.2378 60.8008V8.29896C31.2383 7.83471 31.4235 7.38962 31.7528 7.06134C32.0821 6.73306 32.5285 6.54839 32.9941 6.54785H110.775C111.241 6.54839 111.687 6.73306 112.016 7.06134C112.346 7.38962 112.531 7.83471 112.532 8.29896V60.8375L112.455 60.8699L73.2436 77.5655C73.0087 77.6639 72.7566 77.7144 72.5019 77.7143Z" fill="white"/>
<path id="Vector_6" d="M72.5021 77.8393C72.2389 77.8396 71.9781 77.7887 71.7344 77.6896L31.1125 60.8844V8.29904C31.1131 7.80162 31.3116 7.32473 31.6643 6.973C32.0171 6.62127 32.4954 6.42342 32.9943 6.42285H110.775C111.274 6.42342 111.753 6.62127 112.105 6.973C112.458 7.32473 112.657 7.80162 112.657 8.29904V60.9201L73.293 77.6805C73.0427 77.7856 72.7737 77.8395 72.5021 77.8393ZM31.6143 60.5503L71.9258 77.227C72.3018 77.3791 72.7229 77.3766 73.097 77.22L112.155 60.5898V8.29904C112.155 7.93427 112.009 7.58456 111.751 7.32663C111.492 7.0687 111.141 6.9236 110.775 6.92317H32.9944C32.6285 6.9236 32.2777 7.0687 32.019 7.32663C31.7603 7.58456 31.6148 7.93427 31.6144 8.29904L31.6143 60.5503Z" fill="#1B263D"/>
<path id="Vector_7" d="M141.26 48.4495H141.21L112.406 60.7123L72.9963 77.4904C72.8423 77.555 72.6771 77.5887 72.51 77.5895C72.3429 77.5904 72.1773 77.5584 72.0227 77.4954L31.3633 60.6772L1.85166 48.4695L1.80658 48.4495H1.75635C1.29069 48.45 0.844258 48.6346 0.514991 48.9629C0.185724 49.2912 0.00051668 49.7363 0 50.2006V126.249C0.000517342 126.713 0.185724 127.158 0.514991 127.487C0.844258 127.815 1.29069 127.999 1.75635 128H141.26C141.726 127.999 142.172 127.815 142.502 127.487C142.831 127.158 143.016 126.713 143.017 126.249V50.2006C143.016 49.7363 142.831 49.2912 142.502 48.9629C142.172 48.6346 141.726 48.45 141.26 48.4495ZM142.515 126.249C142.515 126.581 142.383 126.899 142.147 127.133C141.912 127.368 141.593 127.5 141.26 127.5H1.75635C1.42366 127.5 1.10465 127.368 0.869406 127.133C0.634164 126.899 0.501946 126.581 0.501813 126.249V50.2006C0.502268 49.8771 0.62811 49.5664 0.853027 49.3333C1.07794 49.1002 1.38453 48.9628 1.70869 48.9498L31.3633 61.2176L71.8296 77.9582C72.2676 78.1359 72.7585 78.1332 73.1945 77.9507L112.406 61.2551L141.311 48.9498C141.634 48.9637 141.94 49.1015 142.164 49.3345C142.389 49.5674 142.514 49.8776 142.515 50.2006V126.249Z" fill="#1B263D"/>
<path id="Vector_8" d="M72.0967 62.8265C70.6 62.8293 69.1429 62.3468 67.9453 61.4516L67.871 61.3961L52.2368 49.4616C51.5127 48.9085 50.905 48.2186 50.4484 47.4313C49.9918 46.6441 49.6951 45.7748 49.5754 44.8732C49.4557 43.9717 49.5153 43.0554 49.7508 42.1768C49.9863 41.2982 50.393 40.4744 50.9477 39.7525C51.5025 39.0306 52.1945 38.4248 52.9841 37.9695C53.7737 37.5142 54.6456 37.2185 55.5498 37.0991C56.4541 36.9798 57.3731 37.0392 58.2543 37.2739C59.1355 37.5087 59.9618 37.9142 60.6858 38.4673L70.8125 46.2092L94.7435 15.0927C95.2985 14.371 95.9906 13.7654 96.7804 13.3104C97.5702 12.8554 98.4422 12.5599 99.3465 12.4409C100.251 12.3219 101.17 12.3816 102.051 12.6167C102.932 12.8518 103.758 13.2576 104.482 13.811L104.333 14.0125L104.486 13.814C105.946 14.9328 106.901 16.5834 107.142 18.4037C107.383 20.224 106.89 22.0652 105.771 23.5235L77.6228 60.1239C76.9718 60.9673 76.1346 61.6498 75.1763 62.1185C74.2179 62.5872 73.1642 62.8295 72.0967 62.8265Z" fill="#3551F2"/>
</g>
<defs>
<clipPath id="clip0">
<rect width="143.017" height="128" fill="white"/>
</clipPath>
</defs>
</svg>
